<?xml version="1.0" encoding="utf-8"?>
<!-- Generator: Adobe Illustrator 19.0.0, SVG Export Plug-In . SVG Version: 6.00 Build 0)  -->
<svg version="1.1" id="Layer_1" xmlns="http://www.w3.org/2000/svg" xmlns:xlink="http://www.w3.org/1999/xlink" x="0px" y="0px"
	 viewBox="0 0 353.1 357.5" style="enable-background:new 0 0 353.1 357.5;" xml:space="preserve" fill="#fc1c51">
<path id="XMLID_20_" d="M265.3,97.2c0.5,24.8-5.5,47.5-22.4,66.1c-24.7,27.2-55.6,37-90.9,26.7c-35.5-10.3-57.1-34.9-62.5-71.6
	c-3.3-22.6-3.4-45.5,6.8-67.1c15.4-33,49.7-55,89-50.8c40.4,4.3,71.7,34,77.9,72.4C264.4,80.9,264.6,89.1,265.3,97.2z"/>
<path id="XMLID_2_" d="M334.6,211.6h-19c-3.7,0-5.9,1.7-6.8,5.5l-8.6,37.8l-4.8,21l-7.3-25.5l-9.5-33.4c-1.1-3.5-3.5-5.2-7-5.2
	h-12.5c-3.7,0-5.9,1.7-6.8,5.2l-6,21.6l-10.4,37.4l-9.9-41.1l-4.3-17.7c-0.9-3.7-3.1-5.5-6.8-5.5h-19.2c-3.3,0-5,1.3-5,3.9
	c0,0.4,0.2,1.3,0.4,2.4l3.7,13.7l22.7,83.9c0.7,3.5,3.1,5.2,6.8,5.2h14.6c3.3,0,5.7-1.7,7-5l18.8-55.7l19.7,55.7
	c1.3,3.3,3.7,5,7.2,5h14.4c3.7,0,5.9-1.7,6.8-5.2l13.3-49.2l13.1-48.5c0.2-0.4,0.2-1.1,0.2-2.2C339.7,212.9,337.9,211.6,334.6,211.6
	z"/>
<path id="XMLID_11_" d="M353.1,303.3c0.1-14.4-5.9-25-17.7-32.2l-12.7,47c-2,8-8.2,12.7-16.4,12.7h-14.4c-7.5,0-13.7-4.2-16.5-11.3
	l-0.1-0.2l-0.1-0.2l-10-28.4l-9.5,28.2l-0.1,0.3l-0.1,0.3c-2.8,7.1-8.9,11.3-16.3,11.3h-14.6c-8.4,0-14.8-5.1-16.5-12.9l-23.4-86.6
	c-14.1-0.3-28.4,0.3-42.8,1.8c-43.2,4.4-83.9,17-122.2,37.4c-12.7,6.8-19.1,17.6-19.3,32c-0.1,11,0.5,22-0.2,33
	c-0.8,12.4,7.9,22.2,21.7,22.1c51.6-0.4,103.3-0.2,155-0.2c8.2,0,16.3,0,24.5,0c43.8,0,87.6,0,131.5,0c13,0,20.4-7.6,20.5-20.5
	C353.1,325.6,353.1,314.5,353.1,303.3z"/>
</svg>
