<?xml version="1.0" encoding="utf-8"?>
<!-- Generator: Adobe Illustrator 19.0.0, SVG Export Plug-In . SVG Version: 6.00 Build 0)  -->
<svg version="1.1" id="Layer_1" xmlns="http://www.w3.org/2000/svg" xmlns:xlink="http://www.w3.org/1999/xlink" x="0px" y="0px"
	 viewBox="0 0 88.9 51.5" style="enable-background:new 0 0 88.9 51.5;" xml:space="preserve">
<style type="text/css">
	.st0{fill:#fc1c51;}
</style>
<g>
	<g id="XMLID_75_">
		<path id="XMLID_76_" class="st0" d="M25.9,15.5h-4.5c0.2-0.9,0.4-1.8,0.7-2.7c0.3-0.8,0.5-1.6,0.6-2.3c0.5-2,1-3.6,1.5-4.8
			c0.5-1.3,1-2.3,1.5-3c0.5-0.8,1-1.3,1.6-1.6c0.5-0.3,1.2-0.5,1.9-0.5v0.2c-0.8,0.3-1.4,0.7-1.7,1.2c-0.4,0.5-0.5,1.2-0.5,2
			c0,0.9,0.3,1.6,0.9,2.1c0.6,0.5,1.4,0.8,2.3,0.8c1,0,1.8-0.3,2.4-0.9c0.6-0.6,0.9-1.4,0.9-2.4c0-1.1-0.4-2-1.2-2.6
			C31.4,0.3,30.5,0,29.4,0c-1.5,0-3,0.5-4.4,1.4c-1.5,0.9-2.9,2.2-4.2,3.7c-1.3,1.5-2.5,3.2-3.5,5c-1,1.8-1.9,3.6-2.4,5.4h-3.8
			l-0.2,0.9h3.7c-0.2,0.8-0.5,2-0.9,3.8c-0.4,1.8-0.8,3.8-1.2,6.2c-0.4,2.4-0.9,4.9-1.4,7.7c-0.5,2.8-1,5.6-1.5,8.4
			C9.4,43.8,9.1,45,8.8,46c-0.3,1-0.6,1.9-1,2.5c-0.4,0.7-0.9,1.2-1.4,1.5c-0.6,0.3-1.3,0.5-2.1,0.5v-0.1c0.6-0.1,1.1-0.3,1.5-0.8
			c0.5-0.5,0.7-1.1,0.7-1.9c0-0.7-0.3-1.3-0.8-1.9c-0.5-0.6-1.3-0.9-2.4-0.9c-0.9,0-1.7,0.3-2.3,0.8c-0.6,0.5-1,1.4-1,2.5
			c0,0.5,0.1,1,0.4,1.4c0.3,0.4,0.6,0.8,1,1c0.4,0.3,0.9,0.5,1.4,0.6c0.5,0.1,1,0.2,1.5,0.2c1.2,0,2.4-0.5,3.6-1.4
			C9,49.2,10,48,11.1,46.6c1-1.4,1.9-3,2.8-4.7c0.8-1.7,1.6-3.4,2.2-5c0.6-1.6,1.2-3.1,1.5-4.4c0.4-1.3,0.7-2.3,0.8-2.9l2.9-13.2
			h4.5L25.9,15.5z M45.9,15.7c-0.8-0.5-1.7-0.8-2.8-0.8c-0.8,0-1.5,0.2-2.2,0.5c-0.7,0.3-1.4,0.8-2,1.3c-0.6,0.5-1.2,1.1-1.7,1.7
			c-0.5,0.6-0.9,1.2-1.3,1.7h-0.1l1.9-5.7c-0.5,0.4-1.1,0.7-1.8,0.8c-0.7,0.2-1.7,0.3-2.9,0.3h-5.3l-0.2,0.9h3.2l-6.4,21.4H31
			l4.4-15.1c0.1-0.3,0.4-0.8,0.9-1.5c0.5-0.7,1-1.4,1.6-2.1c0.6-0.7,1.2-1.3,1.8-1.9c0.6-0.5,1-0.8,1.3-0.8c0.1,0,0.2,0.1,0.2,0.2
			c0,0-0.1,0.1-0.2,0.2c-0.1,0.1-0.2,0.3-0.4,0.5c-0.1,0.2-0.3,0.5-0.4,0.8c-0.1,0.3-0.2,0.6-0.2,1c0,1,0.3,1.7,0.9,2.3
			c0.6,0.6,1.4,0.9,2.3,0.9c1.2,0,2.2-0.4,2.9-1.2c0.7-0.8,1-1.7,1-2.7C47.1,17.2,46.7,16.3,45.9,15.7z M65.2,16.2
			c-0.6-0.4-1.3-0.8-2.1-1c-0.8-0.2-1.5-0.3-2.3-0.3c-1.7,0-3.3,0.4-5,1.3c-1.7,0.9-3.1,2.1-4.5,3.6c-1.3,1.5-2.4,3.1-3.2,4.9
			C47.4,26.5,47,28.2,47,30c0,1.1,0.2,2.2,0.5,3.2c0.4,1,0.9,1.9,1.6,2.7c0.7,0.8,1.6,1.4,2.6,1.9c1,0.5,2.3,0.7,3.7,0.7
			c2.1,0,4-0.5,5.6-1.4c1.6-0.9,3-2.3,4.1-3.9l-0.7-0.4c-0.9,1.4-2,2.5-3.4,3.4c-1.4,0.9-2.9,1.4-4.5,1.4c-1,0-1.8-0.3-2.4-0.9
			c-0.6-0.6-0.9-1.5-0.9-2.5c0-1.1,0.1-2.2,0.3-3.4c0.2-1.1,0.5-2.3,0.8-3.5c0.5,0.2,1,0.3,1.7,0.3c0.6,0.1,1.1,0.1,1.4,0.1
			c1.2,0,2.3-0.1,3.5-0.4c1.2-0.3,2.2-0.7,3.2-1.3c1-0.6,1.7-1.3,2.3-2.3c0.6-0.9,0.9-2.1,0.9-3.4c0-0.9-0.2-1.6-0.6-2.3
			C66.3,17.2,65.8,16.7,65.2,16.2z M61.8,20.5c-0.3,1-0.7,2.1-1.1,3.1c-0.4,1-0.9,1.8-1.4,2.4c-0.6,0.6-1.4,0.9-2.6,0.9
			c-0.4,0-0.8,0-1.2-0.1c-0.4-0.1-0.7-0.2-1-0.4c1.1-3.6,2-6.4,2.9-8.2c0.9-1.8,1.9-2.8,3.1-2.8c0.4,0,0.8,0.2,1.1,0.5
			c0.4,0.3,0.6,0.9,0.6,1.6C62.3,18.5,62.1,19.5,61.8,20.5z M88.3,17.9c-0.4-0.7-0.9-1.2-1.5-1.7c-0.6-0.4-1.3-0.8-2.1-1
			c-0.8-0.2-1.5-0.3-2.3-0.3c-1.7,0-3.3,0.4-5,1.3c-1.7,0.9-3.1,2.1-4.5,3.6c-1.3,1.5-2.4,3.1-3.2,4.9c-0.8,1.8-1.2,3.6-1.2,5.3
			c0,1.1,0.2,2.2,0.5,3.2c0.4,1,0.9,1.9,1.6,2.7c0.7,0.8,1.6,1.4,2.6,1.9c1,0.5,2.3,0.7,3.7,0.7c2.1,0,4-0.5,5.6-1.4
			c1.6-0.9,3-2.3,4.1-3.9L86,32.7c-0.9,1.4-2,2.5-3.4,3.4c-1.4,0.9-2.9,1.4-4.5,1.4c-1,0-1.8-0.3-2.4-0.9c-0.6-0.6-0.9-1.5-0.9-2.5
			c0-1.1,0.1-2.2,0.3-3.4c0.2-1.1,0.5-2.3,0.8-3.5c0.5,0.2,1,0.3,1.7,0.3c0.6,0.1,1.1,0.1,1.4,0.1c1.2,0,2.3-0.1,3.5-0.4
			c1.2-0.3,2.2-0.7,3.2-1.3c1-0.6,1.7-1.3,2.3-2.3c0.6-0.9,0.9-2.1,0.9-3.4C88.9,19.3,88.7,18.6,88.3,17.9z M83.4,20.5
			c-0.3,1-0.7,2.1-1.1,3.1c-0.4,1-0.9,1.8-1.4,2.4c-0.6,0.6-1.4,0.9-2.6,0.9c-0.4,0-0.8,0-1.2-0.1c-0.4-0.1-0.7-0.2-1-0.4
			c1.1-3.6,2-6.4,2.9-8.2c0.9-1.8,1.9-2.8,3.1-2.8c0.4,0,0.8,0.2,1.1,0.5c0.4,0.3,0.6,0.9,0.6,1.6C83.9,18.5,83.7,19.5,83.4,20.5z"
			/>
	</g>
</g>
</svg>
