<?xml version="1.0" encoding="utf-8"?>
<!-- Generator: Adobe Illustrator 19.0.0, SVG Export Plug-In . SVG Version: 6.00 Build 0)  -->
<svg version="1.1" id="Layer_1" xmlns="http://www.w3.org/2000/svg" xmlns:xlink="http://www.w3.org/1999/xlink" x="0px" y="0px"
	 viewBox="0 0 97.9 59.3" style="enable-background:new 0 0 97.9 59.3;" xml:space="preserve">
<style type="text/css">
	.st0{fill:#5e5e5e;}
</style>
<path id="XMLID_69_" d="M46.5,22.1c0,13.2-9.3,22.1-23.2,22.1C9.3,44.2,0,35.3,0,22.1C0,8.8,9.3,0,23.3,0C37.1,0,46.5,8.8,46.5,22.1
	z M12.5,22.2c0,7.1,4.3,11.9,10.8,11.9c6.4,0,10.8-4.8,10.8-11.9s-4.4-11.9-10.8-11.9C16.8,10.3,12.5,15.1,12.5,22.2z"/>
<path id="XMLID_72_" d="M97.9,22.3c0,13.1-8,21.9-20.1,21.9c-6,0-10.8-2.4-13.9-6.8v21.9H51.5V0.4h12.4v6.4C66.9,2.4,71.7,0,77.5,0
	C89.7,0,97.9,8.9,97.9,22.3z M85.4,21.9C85.4,15,81,10,74.6,10c-6.4,0-10.8,4.9-10.8,11.9c0,7.2,4.4,12,10.8,12
	C81,33.9,85.4,29,85.4,21.9z"/>
<g id="XMLID_22_">
	<path id="XMLID_38_" class="st0" d="M46.5,22.1c0,13.2-9.3,22.1-23.2,22.1C9.3,44.2,0,35.3,0,22.1C0,8.8,9.3,0,23.3,0
		C37.1,0,46.5,8.8,46.5,22.1z M12.5,22.2c0,7.1,4.3,11.9,10.8,11.9c6.4,0,10.8-4.8,10.8-11.9s-4.4-11.9-10.8-11.9
		C16.8,10.3,12.5,15.1,12.5,22.2z"/>
	<path id="XMLID_41_" class="st0" d="M97.9,22.3c0,13.1-8,21.9-20.1,21.9c-6,0-10.8-2.4-13.9-6.8v21.9H51.5V0.4h12.4v6.4
		C66.9,2.4,71.7,0,77.5,0C89.7,0,97.9,8.9,97.9,22.3z M85.4,21.9C85.4,15,81,10,74.6,10c-6.4,0-10.8,4.9-10.8,11.9
		c0,7.2,4.4,12,10.8,12C81,33.9,85.4,29,85.4,21.9z"/>
</g>
</svg>
