<?xml version="1.0" standalone="no"?>
<!DOCTYPE svg PUBLIC "-//W3C//DTD SVG 1.1//EN" "http://www.w3.org/Graphics/SVG/1.1/DTD/svg11.dtd" >
<svg xmlns="http://www.w3.org/2000/svg" xmlns:xlink="http://www.w3.org/1999/xlink" version="1.1" viewBox="-30 -210 2570 2248">
  <g transform="matrix(1 0 0 -1 0 1638)">
   <path fill="currentColor"
d="M1108 779h204q65 0 112 51q48 51 48 122q0 39 -12 71t-34 54.5t-53 35t-68 12.5h-205q-7 0 -7 -6v-334q0 -6 15 -6zM1803 153q0 -11 -8 -19.5t-19 -8.5h-259q-16 0 -23 11l-297 396h-102v-379q0 -26 -26 -26h-259q-26 0 -26 26v1191q0 11 7.5 19.5t18.5 8.5h528
q89 0 163.5 -31t137.5 -94q125 -123 125 -295q0 -65 -18.5 -124t-53 -109.5t-83 -90t-108.5 -65.5l297 -394q5 -5 5 -16zM1251 -200q253 0 468 124q216 127 343 345q129 220 129 472q0 255 -129 473q-66 111 -151.5 196t-194.5 148q-215 124 -465 124q-128 0 -244 -32
t-227 -95q-220 -127 -345 -345q-125 -220 -125 -469q0 -254 125 -471q128 -220 346 -344q220 -126 470 -126zM1251 1782q286 0 528 -145q242 -144 376 -383q135 -240 135 -513q0 -274 -135 -514q-135 -241 -378 -383q-242 -144 -526 -144q-281 0 -522 139q-240 141 -380 379
q-70 121 -104.5 251.5t-34.5 271.5q0 281 139 520q140 241 379 380q240 141 523 141z" />
  </g>

</svg>
