<?xml version="1.0" encoding="utf-8"?>
<!-- Generator: Adobe Illustrator 19.0.0, SVG Export Plug-In . SVG Version: 6.00 Build 0)  -->
<svg version="1.1" id="Layer_1" xmlns="http://www.w3.org/2000/svg" xmlns:xlink="http://www.w3.org/1999/xlink" x="0px" y="0px"
	 viewBox="0 0 1100.1 378" style="enable-background:new 0 0 1100.1 378;" xml:space="preserve">
<style type="text/css">
	.st0{fill:#FFFFFF;}
	.st1{fill:#5E0FAA;}
</style>
<path id="XMLID_290_" class="st0" d="M355.7,40.7c1.4-1.4,2.9-2.6,4.3-3.9l4.6-17c0.5-1.1,0.5-1.8,0.5-4.5c0-7-4.3-9.3-12.3-9.3
	h-46.6c-9.1,0-14.5,3.4-16.6,12.5l-32.7,143.8L215.5,18.2C212.9,9.6,207,6,198.4,6h-30.6c-9.1,0-14.5,3.4-16.6,12L111,162.4
	L76.1,18.8C74,9.6,68.6,6,59.5,6H12.3C4.3,6,0,8.4,0,14.8c0,1.1,0.5,2.8,1.1,5.5L65.9,256c1.6,8.6,7.5,9,16.6,9h35.9
	c8,0,13.9-0.6,17.2-8.6l46.1-134.9l48.3,134c3.2,8,9.1,9.6,17.7,9.6h35.4c9.1,0,14.5-0.6,16.6-9.2l21.6-78.1
	c-3.9-13-5.9-25.8-5.9-40.3C315.5,99.3,328.9,67.6,355.7,40.7z"/>
<path id="XMLID_291_" class="st0" d="M579.3,79.3c-6.6-13.9-15.6-26.7-27.4-38.5C525.1,13.4,493,0,455.4,0
	c-37.1,0-68.9,12.2-95.4,36.8l-38.6,142.8c6.3,21,17.7,40,34.3,56.9c27.3,26.8,60.1,40.2,98.7,40.2c38.1,0,70.8-13.4,97.6-40.2
	c11.7-12,20.7-25,27.3-39.1c-8.5-18-12.9-37.6-12.9-59C566.4,116.9,570.8,97.2,579.3,79.3z M499.9,184.4
	c-12.3,12.3-27.9,18.8-45.6,18.8c-18.2,0-33.8-6.4-46.6-18.8c-12.3-12.9-18.8-28.4-18.8-46.6c0-17.7,6.4-33.2,18.8-45.6
	c12.9-12.9,28.4-19.3,46.1-19.3c18.2,0,33.8,6.4,46.1,19.3c12.9,12.3,19.3,27.9,19.3,45.6C519.2,156,512.8,171.6,499.9,184.4z"/>
<path id="XMLID_294_" class="st1" d="M355.7,40.7c-26.8,26.8-40.2,59.5-40.2,97.6c0,14.5,2,28.3,5.9,41.2L360,36.8
	C358.6,38.1,357.1,39.3,355.7,40.7z"/>
<path id="XMLID_295_" class="st0" d="M803.5,40.7C776.7,13.4,744.2,0,706.7,0c-39.1,0-72.6,13.4-99.9,40.7
	c-11.7,11.7-20.8,24.6-27.4,38.5c8.4,17.7,12.8,37.2,12.8,58.6c0,21.7-4.4,41.5-12.9,59.6c6.6,14,15.6,27.1,27.3,39.1
	c27.3,26.8,60,40.2,98.7,40.2c38.1,0,71.4-13.4,98.2-40.2c7.8-7.9,14.5-16.4,20.5-25.2V65.5C818,56.8,811.3,48.5,803.5,40.7z
	 M750.8,184.4c-12.3,12.3-27.9,18.8-45.6,18.8c-18.2,0-33.8-6.4-46.6-18.8c-12.3-12.9-18.8-28.4-18.8-46.6
	c0-17.7,6.4-33.2,18.8-45.6c12.9-12.9,28.4-19.3,46.1-19.3c18.2,0,33.8,6.4,46.1,19.3c12.9,12.3,19.3,27.9,19.3,45.6
	C770.2,156,763.7,171.6,750.8,184.4z"/>
<path id="XMLID_298_" class="st1" d="M579.3,79.3c-8.5,18-12.9,37.6-12.9,59.1c0,21.4,4.4,41,12.9,59c8.5-18.1,12.9-37.9,12.9-59.6
	C592.2,116.4,587.8,97,579.3,79.3z"/>
<path id="XMLID_299_" class="st0" d="M1059.1,41.3c-27.3-27.4-58.9-41.3-97-41.3C939.6,0,917,6.4,893,18.8v-1.1
	C893,8,886.5,6,876.3,6h-38.1C827.5,6,824,9.6,824,19.8v45.7c6,21.3,20.4,45.3,20.4,72.3c0,27.4-14.4,51.8-20.4,73.4v156.1
	c0,10.2,3.5,10.7,14.2,10.7h42.4c10.2,0,12.4-0.5,12.4-10.7V259.5c24,11.3,45.3,17.2,67.2,17.2c38.1,0,70.9-13.4,98.2-40.7
	c27.3-27.3,41.6-59.5,41.6-97.6C1100.1,100.8,1086.5,68.6,1059.1,41.3z M962.1,204.8c-37,0-66-29.5-66-66.5
	c0-18.8,6.4-34.3,18.8-47.2c12.9-12.9,28.4-19.3,46.6-19.3c18.8,0,34.9,6.4,47.2,19.3c12.9,12.9,19.3,28.4,19.3,47.2
	C1028,175.3,999.1,204.8,962.1,204.8z"/>
<path id="XMLID_302_" class="st1" d="M824,65.5v145.7c8-16.9,20.4-46,20.4-73.4C844.4,110.8,833,82.9,824,65.5z"/>
</svg>
