<?xml version="1.0" encoding="utf-8"?>
<!-- Generator: Adobe Illustrator 19.0.0, SVG Export Plug-In . SVG Version: 6.00 Build 0)  -->
<svg version="1.1" id="Layer_1" xmlns="http://www.w3.org/2000/svg" xmlns:xlink="http://www.w3.org/1999/xlink" x="0px" y="0px"
	 viewBox="-248 391.6 97.9 59.3" style="enable-background:new -248 391.6 97.9 59.3;" xml:space="preserve">
<style type="text/css">
	.st0{fill:none;}
	.st1{fill:#FC1C51;}
	.st2{fill:#5E0FAA;}
</style>
<g>
	<path id="XMLID_381_" class="st0" d="M-175.6,405.1c-5.1,0-9.1,4.1-9.1,9.3c0,5.4,3.9,9.3,9.2,9.3c5.1,0,9.3-4.1,9.3-9.3
		C-166.2,409.2-170.3,405.1-175.6,405.1z"/>
	<path id="XMLID_382_" class="st1" d="M-194.9,392.9h6.3c0.1,0,0.2,0,0.3,0c-0.1,0-0.3,0-0.4,0h-8.1c-1.7,0-2.7,0.9-3.1,2.5
		l-4.3,19.1l-5.5-19.1c-0.5-1.6-1.5-2.4-3.2-2.4h-5.1c-1.6,0-2.7,0.8-3.1,2.4l-5.3,19.1l-4.5-19.1c-0.3-1.6-1.4-2.5-3.1-2.5h-8.3
		c-1.5,0-2.3,0.6-2.3,1.8c0,0.2,0.1,0.5,0.2,1.1l10.3,37.6c0.3,1.6,1.4,2.4,3.1,2.4h6c1.6,0,2.7-0.8,3.3-2.3l6.3-18.9l6.5,18.9
		c0.5,1.5,1.6,2.3,3.3,2.3h6c0.8,0,0.8-0.2,1.8-0.6v-39.4C-198,393.9-196.9,392.9-194.9,392.9z"/>
	<path id="XMLID_385_" class="st1" d="M-159.9,398.9c-4.4-4.4-9.5-6.6-15.5-6.6c-3.3,0-6.6,0.9-10.6,2.8V395c0-1.3-0.8-2-2.1-2
		c1.3,0.1,1.9,0.7,1.9,1.9c0,0.1-0.1,0.4-0.2,1l-10.3,37.5c-0.2,0.8-0.2,1.5-1.2,1.9v11c0,1.9,1.1,3.6,3.1,3.6h7.4
		c1.9,0,2.6-1.7,2.6-3.6v-12c4,1.5,6.1,2.2,9.2,2.2c6.2,0,11.5-2.1,15.8-6.5c4.4-4.4,6.5-9.5,6.5-15.6
		C-153.4,408.4-155.5,403.3-159.9,398.9z M-175.5,423.8c-5.2,0-9.2-3.9-9.2-9.3c0-5.2,3.9-9.3,9.1-9.3c5.2,0,9.3,4.1,9.3,9.3
		C-166.2,419.6-170.3,423.8-175.5,423.8z"/>
	<path id="XMLID_386_" class="st2" d="M-196.8,433.4l10.3-37.5c0.1-0.5,0.2-0.9,0.2-1c0-1.2-0.5-1.8-1.9-1.9c-0.1,0-0.2,0-0.3,0
		h-6.3c-2,0-3.1,1-3.1,3v39.4C-197,434.9-197,434.3-196.8,433.4z"/>
</g>
</svg>
