<?xml version="1.0" encoding="utf-8"?>
<!-- Generator: Adobe Illustrator 19.0.0, SVG Export Plug-In . SVG Version: 6.00 Build 0)  -->
<svg version="1.1" id="Layer_1" xmlns="http://www.w3.org/2000/svg" xmlns:xlink="http://www.w3.org/1999/xlink" x="0px" y="0px"
	 viewBox="-285 409.6 23.6 23.3" style="enable-background:new -285 409.6 23.6 23.3;" xml:space="preserve">
<style type="text/css">
	.st0{fill:#FDDB73;}
	.st1{fill:#00DEFF;}
	.st2{enable-background:new    ;}
	.st3{fill:#FFFFFF;}
</style>
<g id="XMLID_95_">
	<path class="st0" d="M-273.2,410c-6.2,0-11.2,5-11.2,11.2c0,6.2,5,11.2,11.2,11.2c6.2,0,11.2-5,11.2-11.2
		C-262,415-267,410-273.2,410"/>
</g>
<g id="XMLID_71_">
	<path class="st1" d="M-273.2,410c-6.2,0-11.2,5-11.2,11.2c0,6.2,5,11.2,11.2,11.2c6.2,0,11.2-5,11.2-11.2
		C-262,415-267,410-273.2,410"/>
</g>
<g id="XMLID_64_" class="st2">
	<path class="st3" d="M-267.5,423.1c-0.1,0.2-0.3,0.3-0.5,0.3h-3.1l1.6,3.8c0.1,0.3,0,0.6-0.3,0.7l-1.4,0.6c-0.3,0.1-0.6,0-0.7-0.3
		l-1.5-3.7l-2.5,2.5c-0.1,0.1-0.2,0.2-0.4,0.2c-0.1,0-0.1,0-0.2,0c-0.2-0.1-0.3-0.3-0.3-0.5v-12.2c0-0.2,0.1-0.4,0.3-0.5
		c0.1,0,0.1,0,0.2,0c0.1,0,0.3,0,0.4,0.2l8.3,8.3C-267.4,422.7-267.4,422.9-267.5,423.1z"/>
</g>
<text id="XMLID_4_" transform="matrix(1 0 0 1 -232.2578 448.9401)" class="st3" style="font-family:'FontAwesome'; font-size:14.5px;"></text>
<text id="XMLID_65_" transform="matrix(1 0 0 1 -240.6953 426.565)" class="st3" style="font-family:'FontAwesome'; font-size:14.5px;"></text>
</svg>
