<?xml version="1.0" encoding="utf-8"?>
<!-- Generator: Adobe Illustrator 19.0.0, SVG Export Plug-In . SVG Version: 6.00 Build 0)  -->
<svg version="1.1" id="Layer_1" xmlns="http://www.w3.org/2000/svg" xmlns:xlink="http://www.w3.org/1999/xlink" x="0px" y="0px"
	 viewBox="-285 409.6 23.6 23.3" style="enable-background:new -285 409.6 23.6 23.3;" xml:space="preserve">
<style type="text/css">
	.st0{fill:#00DEFF;}
	.st1{enable-background:new    ;}
	.st2{fill:#FFFFFF;}
</style>
<g id="XMLID_71_">
	<path class="st0" d="M-273.2,410c-6.2,0-11.2,5-11.2,11.2c0,6.2,5,11.2,11.2,11.2c6.2,0,11.2-5,11.2-11.2
		C-262,415-267,410-273.2,410"/>
</g>
<g id="XMLID_64_" class="st1">
	<path class="st2" d="M-309.5,423.1c-0.1,0.2-0.3,0.3-0.5,0.3h-3.1l1.6,3.8c0.1,0.3,0,0.6-0.3,0.7l-1.4,0.6c-0.3,0.1-0.6,0-0.7-0.3
		l-1.5-3.7l-2.5,2.5c-0.1,0.1-0.2,0.2-0.4,0.2c-0.1,0-0.1,0-0.2,0c-0.2-0.1-0.3-0.3-0.3-0.5v-12.2c0-0.2,0.1-0.4,0.3-0.5
		c0.1,0,0.1,0,0.2,0c0.1,0,0.3,0,0.4,0.2l8.3,8.3C-309.4,422.7-309.4,422.9-309.5,423.1z"/>
</g>
<g id="XMLID_4_" class="st1">
	<path class="st2" d="M-364.1,419.7l-4.1,4.1c-0.1,0.1-0.2,0.2-0.4,0.2c-0.3,0-0.5-0.2-0.5-0.5v-2.1h-1.8c-3.5,0-5.8,0.7-5.8,4.5
		c0,0.3,0,0.7,0,1c0,0.1,0,0.3,0,0.4c0,0.2-0.1,0.3-0.3,0.3c-0.1,0-0.2-0.1-0.2-0.1c-0.1-0.2-0.2-0.4-0.3-0.6c-0.5-1-1-2.5-1-3.6
		c0-0.9,0.1-1.8,0.4-2.7c1.1-2.8,4.4-3.3,7.1-3.3h1.8v-2.1c0-0.3,0.2-0.5,0.5-0.5c0.1,0,0.3,0.1,0.4,0.2l4.1,4.1
		c0.1,0.1,0.2,0.2,0.2,0.4S-364,419.6-364.1,419.7z"/>
</g>
<g id="XMLID_65_" class="st1">
	<path class="st2" d="M-272.8,425.6c-0.4,0-0.8,0-1.2-0.1c-1.1,0.9-2.3,1.6-3.7,2c-0.3,0.1-0.6,0.1-0.9,0.2c-0.2,0-0.3-0.1-0.4-0.3
		c0,0,0,0,0,0c0-0.2,0.1-0.3,0.2-0.5c0.5-0.6,1.1-1.1,1.5-2.4c-1.7-0.9-2.7-2.4-2.7-4.1c0-2.9,3.2-5.2,7.2-5.2s7.2,2.3,7.2,5.2
		S-268.8,425.6-272.8,425.6z"/>
</g>
</svg>
