<?xml version="1.0" encoding="utf-8"?>
<!-- Generator: Adobe Illustrator 19.0.0, SVG Export Plug-In . SVG Version: 6.00 Build 0)  -->
<svg version="1.1" id="Layer_1" xmlns="http://www.w3.org/2000/svg" xmlns:xlink="http://www.w3.org/1999/xlink" x="0px" y="0px"
	 viewBox="0 0 23.6 23.3" style="enable-background:new 0 0 23.6 23.3;" xml:space="preserve">
<style type="text/css">
	.st0{fill:#F25268;}
</style>
<g id="XMLID_4_">
	<path id="XMLID_67_" class="st0" d="M11.8,0.4c-6.2,0-11.2,5-11.2,11.2c0,6.2,5,11.2,11.2,11.2c6.2,0,11.2-5,11.2-11.2
		C23.1,5.4,18,0.4,11.8,0.4 M18.7,10.8c-1,4.3-6.9,7.2-6.9,7.2s-6-3-6.9-7.2C4.5,9.2,5.4,6.2,8.3,6.2c3.1,0,3.5,2.5,3.5,2.5
		s0.4-2.5,3.5-2.5C18.2,6.2,19.1,9.2,18.7,10.8"/>
	<path id="XMLID_64_" class="st0" d="M11.8,0.4c-6.2,0-11.2,5-11.2,11.2c0,6.2,5,11.2,11.2,11.2c6.2,0,11.2-5,11.2-11.2
		C23.1,5.4,18,0.4,11.8,0.4 M18.7,10.8c-1,4.3-6.9,7.2-6.9,7.2s-6-3-6.9-7.2C4.5,9.2,5.4,6.2,8.3,6.2c3.1,0,3.5,2.5,3.5,2.5
		s0.4-2.5,3.5-2.5C18.2,6.2,19.1,9.2,18.7,10.8"/>
</g>
</svg>
