<?xml version="1.0" encoding="utf-8"?>
<!-- Generator: Adobe Illustrator 19.0.0, SVG Export Plug-In . SVG Version: 6.00 Build 0)  -->
<svg version="1.1" id="Layer_1" xmlns="http://www.w3.org/2000/svg" xmlns:xlink="http://www.w3.org/1999/xlink" x="0px" y="0px"
	 viewBox="0 0 23.6 23.3" style="enable-background:new 0 0 23.6 23.3;" xml:space="preserve">
<style type="text/css">
	.st0{fill:#FDDB73;}
	.st1{fill:#5890FF;}
	.st2{fill:#262C38;}
</style>
<g id="XMLID_4_">
	<path id="XMLID_95_" class="st0" d="M11.8,0.4c-6.2,0-11.2,5-11.2,11.2s5,11.2,11.2,11.2c6.2,0,11.2-5,11.2-11.2S18,0.4,11.8,0.4"
		/>
	<path id="XMLID_94_" class="st1" d="M18.5,16.7c-0.2,0-1.7,3.2-1.7,4.1c0,0.9,0.8,1.6,1.7,1.6c0.9,0,1.7-0.7,1.7-1.6
		C20.2,19.9,18.7,16.7,18.5,16.7"/>
	<path id="XMLID_88_" class="st2" d="M11.8,16.2c-1.2,0-2.3,0.5-3,1.4c-0.2,0.2-0.2,0.5,0.1,0.7c0.1,0.1,0.2,0.1,0.3,0.1
		c0.1,0,0.3-0.1,0.4-0.2c0.5-0.6,1.4-1,2.2-1c0.9,0,1.7,0.4,2.2,1c0.2,0.2,0.5,0.2,0.7,0.1c0.2-0.2,0.2-0.5,0.1-0.7
		C14.1,16.7,13,16.2,11.8,16.2 M6.9,11.3c-0.8,0-1.4,0.7-1.4,1.5c0,0.8,0.6,1.5,1.4,1.5c0.8,0,1.4-0.7,1.4-1.5
		C8.3,12,7.7,11.3,6.9,11.3 M7.9,9.8c0-0.2-0.2-0.5-0.4-0.5c-1.5,0-3,1-3.4,1.8c-0.1,0.2,0,0.5,0.2,0.6c0.1,0,0.1,0.1,0.2,0.1
		c0.2,0,0.3-0.1,0.4-0.2c0.3-0.5,1.4-1.4,2.6-1.3C7.7,10.3,7.9,10.1,7.9,9.8 M16.7,11.3c-0.8,0-1.4,0.7-1.4,1.5
		c0,0.8,0.6,1.5,1.4,1.5c0.8,0,1.4-0.7,1.4-1.5C18.1,12,17.5,11.3,16.7,11.3 M19.5,11.2c-0.4-0.8-1.9-1.9-3.4-1.8
		c-0.2,0-0.4,0.2-0.4,0.5c0,0.2,0.2,0.4,0.5,0.4c1.1,0,2.3,0.8,2.6,1.3c0.1,0.2,0.2,0.2,0.4,0.2c0.1,0,0.1,0,0.2-0.1
		C19.5,11.7,19.6,11.4,19.5,11.2"/>
	<path id="XMLID_71_" class="st0" d="M11.8,0.4c-6.2,0-11.2,5-11.2,11.2s5,11.2,11.2,11.2c6.2,0,11.2-5,11.2-11.2S18,0.4,11.8,0.4"
		/>
	<path id="XMLID_70_" class="st1" d="M18.5,16.7c-0.2,0-1.7,3.2-1.7,4.1c0,0.9,0.8,1.6,1.7,1.6c0.9,0,1.7-0.7,1.7-1.6
		C20.2,19.9,18.7,16.7,18.5,16.7"/>
	<path id="XMLID_64_" class="st2" d="M11.8,16.2c-1.2,0-2.3,0.5-3,1.4c-0.2,0.2-0.2,0.5,0.1,0.7c0.1,0.1,0.2,0.1,0.3,0.1
		c0.1,0,0.3-0.1,0.4-0.2c0.5-0.6,1.4-1,2.2-1c0.9,0,1.7,0.4,2.2,1c0.2,0.2,0.5,0.2,0.7,0.1c0.2-0.2,0.2-0.5,0.1-0.7
		C14.1,16.7,13,16.2,11.8,16.2 M6.9,11.3c-0.8,0-1.4,0.7-1.4,1.5c0,0.8,0.6,1.5,1.4,1.5c0.8,0,1.4-0.7,1.4-1.5
		C8.3,12,7.7,11.3,6.9,11.3 M7.9,9.8c0-0.2-0.2-0.5-0.4-0.5c-1.5,0-3,1-3.4,1.8c-0.1,0.2,0,0.5,0.2,0.6c0.1,0,0.1,0.1,0.2,0.1
		c0.2,0,0.3-0.1,0.4-0.2c0.3-0.5,1.4-1.4,2.6-1.3C7.7,10.3,7.9,10.1,7.9,9.8 M16.7,11.3c-0.8,0-1.4,0.7-1.4,1.5
		c0,0.8,0.6,1.5,1.4,1.5c0.8,0,1.4-0.7,1.4-1.5C18.1,12,17.5,11.3,16.7,11.3 M19.5,11.2c-0.4-0.8-1.9-1.9-3.4-1.8
		c-0.2,0-0.4,0.2-0.4,0.5c0,0.2,0.2,0.4,0.5,0.4c1.1,0,2.3,0.8,2.6,1.3c0.1,0.2,0.2,0.2,0.4,0.2c0.1,0,0.1,0,0.2-0.1
		C19.5,11.7,19.6,11.4,19.5,11.2"/>
</g>
</svg>
