<?xml version="1.0" encoding="utf-8"?>
<!-- Generator: Adobe Illustrator 19.0.0, SVG Export Plug-In . SVG Version: 6.00 Build 0)  -->
<svg version="1.1" id="Layer_1" xmlns="http://www.w3.org/2000/svg" xmlns:xlink="http://www.w3.org/1999/xlink" x="0px" y="0px"
	 viewBox="0 0 23.6 23.3" style="enable-background:new 0 0 23.6 23.3;" xml:space="preserve">
<style type="text/css">
	.st0{fill:#5D9FF5;}
</style>
<g id="XMLID_4_">
	<path id="XMLID_68_" class="st0" d="M11.8,0.4c-6.2,0-11.2,5-11.2,11.2c0,6.2,5,11.2,11.2,11.2c6.2,0,11.2-5,11.2-11.2
		C23,5.4,18,0.4,11.8,0.4 M8.7,16.5c0,0.2-0.2,0.4-0.4,0.4h-2c-0.2,0-0.4-0.2-0.4-0.4v-5.7c0-0.2,0.2-0.4,0.4-0.4h2
		c0.2,0,0.4,0.2,0.4,0.4V16.5z M17.2,12.5c0,0.4-0.3,0.8-0.7,0.9c0.3,0.1,0.5,0.4,0.5,0.7c0,0.4-0.3,0.7-0.7,0.8
		c0.2,0.1,0.3,0.4,0.3,0.6c0,0.4-0.3,0.8-0.8,0.8v0h-6c-0.3,0-0.5-0.3-0.5-0.6V12c0-0.3,0-1.6,0.7-2.6c0.6-0.8,0.9-1.3,1.3-1.6
		C11.7,7.5,12,7,12,6.8c0-0.4,0-0.7,0-0.7h0c0-0.4,0.3-0.8,0.8-0.8c0.3,0,0.5,0.1,0.6,0.3C13.8,5.9,14,6.5,14,7.3
		c0,0.8-0.9,2.6-0.9,2.6h3.2v0c0.6,0,1,0.5,1,1c0,0.4-0.2,0.7-0.5,0.9C17,11.9,17.2,12.2,17.2,12.5"/>
	<path id="XMLID_64_" class="st0" d="M11.8,0.4c-6.2,0-11.2,5-11.2,11.2c0,6.2,5,11.2,11.2,11.2c6.2,0,11.2-5,11.2-11.2
		C23,5.4,18,0.4,11.8,0.4 M8.7,16.5c0,0.2-0.2,0.4-0.4,0.4h-2c-0.2,0-0.4-0.2-0.4-0.4v-5.7c0-0.2,0.2-0.4,0.4-0.4h2
		c0.2,0,0.4,0.2,0.4,0.4V16.5z M17.2,12.5c0,0.4-0.3,0.8-0.7,0.9c0.3,0.1,0.5,0.4,0.5,0.7c0,0.4-0.3,0.7-0.7,0.8
		c0.2,0.1,0.3,0.4,0.3,0.6c0,0.4-0.3,0.8-0.8,0.8v0h-6c-0.3,0-0.5-0.3-0.5-0.6V12c0-0.3,0-1.6,0.7-2.6c0.6-0.8,0.9-1.3,1.3-1.6
		C11.7,7.5,12,7,12,6.8c0-0.4,0-0.7,0-0.7h0c0-0.4,0.3-0.8,0.8-0.8c0.3,0,0.5,0.1,0.6,0.3C13.8,5.9,14,6.5,14,7.3
		c0,0.8-0.9,2.6-0.9,2.6h3.2v0c0.6,0,1,0.5,1,1c0,0.4-0.2,0.7-0.5,0.9C17,11.9,17.2,12.2,17.2,12.5"/>
</g>
</svg>
