<?xml version="1.0" encoding="utf-8"?>
<!-- Generator: Adobe Illustrator 19.0.0, SVG Export Plug-In . SVG Version: 6.00 Build 0)  -->
<svg version="1.1" id="Layer_1" xmlns="http://www.w3.org/2000/svg" xmlns:xlink="http://www.w3.org/1999/xlink" x="0px" y="0px"
	 viewBox="0 0 23.6 23.3" style="enable-background:new 0 0 23.6 23.3;" xml:space="preserve">
<style type="text/css">
	.st0{clip-path:url(#XMLID_94_);fill:url(#XMLID_95_);}
	.st1{fill:none;}
	.st2{fill:#262C38;}
</style>
<g id="XMLID_4_">
	<g id="XMLID_90_">
		<defs>
			<path id="XMLID_91_" d="M11.8,0.4c-6.2,0-11.2,5-11.2,11.2s5,11.2,11.2,11.2c6.2,0,11.2-5,11.2-11.2S18,0.4,11.8,0.4"/>
		</defs>
		<clipPath id="XMLID_94_">
			<use xlink:href="#XMLID_91_"  style="overflow:visible;"/>
		</clipPath>
		
			<linearGradient id="XMLID_95_" gradientUnits="userSpaceOnUse" x1="-382.8837" y1="332.6545" x2="-381.8838" y2="332.6545" gradientTransform="matrix(0 -22.4957 -22.4957 0 7495.1079 -8590.3643)">
			<stop  offset="0" style="stop-color:#FFD872"/>
			<stop  offset="5.544480e-002" style="stop-color:#FFD872"/>
			<stop  offset="0.1925" style="stop-color:#FDCC71"/>
			<stop  offset="0.4423" style="stop-color:#F9AB6E"/>
			<stop  offset="0.7739" style="stop-color:#F17769"/>
			<stop  offset="1" style="stop-color:#EC4F65"/>
		</linearGradient>
		<rect id="XMLID_92_" x="0.6" y="0.4" class="st0" width="22.5" height="22.5"/>
	</g>
	<path id="XMLID_89_" class="st1" d="M0.6,11.6c0,6.2,5,11.2,11.2,11.2c6.2,0,11.2-5,11.2-11.2c0-6.2-5-11.2-11.2-11.2
		C5.6,0.4,0.6,5.4,0.6,11.6"/>
	<path id="XMLID_69_" class="st2" d="M11.8,17.6c-1.9,0-3.5,0.2-3.5,0.8S9.8,19,11.8,19c1.9,0,3.5,0,3.5-0.6S13.7,17.6,11.8,17.6
		 M10,14.7C10,14.7,10,14.7,10,14.7c0.3,0,0.5-0.2,0.5-0.5c0-0.3-0.2-0.5-0.5-0.5c-4.4-0.1-6-1.3-6-1.3c-0.2-0.2-0.5-0.1-0.7,0.1
		c-0.2,0.2-0.1,0.5,0.1,0.7c0,0,0.7,0.5,2.3,1c-0.1,0.2-0.2,0.5-0.2,0.8c0,0.8,0.6,1.4,1.4,1.4c0.8,0,1.4-0.6,1.4-1.4
		c0-0.1,0-0.2,0-0.3C8.8,14.7,9.4,14.7,10,14.7 M20.3,12.5c-0.2-0.2-0.5-0.3-0.7-0.1c0,0-1.6,1.2-6,1.3c-0.3,0-0.5,0.2-0.5,0.5
		c0,0.3,0.2,0.5,0.5,0.5c0,0,0,0,0,0c0.6,0,1.2-0.1,1.8-0.1c0,0.1,0,0.2,0,0.3c0,0.8,0.6,1.4,1.4,1.4c0.8,0,1.4-0.6,1.4-1.4
		c0-0.3-0.1-0.5-0.2-0.8c1.6-0.4,2.3-0.9,2.3-1C20.4,13.1,20.4,12.7,20.3,12.5"/>
	<path id="XMLID_68_" class="st1" d="M0.6,11.6c0,6.2,5,11.2,11.2,11.2c6.2,0,11.2-5,11.2-11.2c0-6.2-5-11.2-11.2-11.2
		C5.6,0.4,0.6,5.4,0.6,11.6"/>
	<path id="XMLID_64_" class="st2" d="M11.8,17.6c-1.9,0-3.5,0.2-3.5,0.8S9.8,19,11.8,19c1.9,0,3.5,0,3.5-0.6S13.7,17.6,11.8,17.6
		 M10,14.7C10,14.7,10,14.7,10,14.7c0.3,0,0.5-0.2,0.5-0.5c0-0.3-0.2-0.5-0.5-0.5c-4.4-0.1-6-1.3-6-1.3c-0.2-0.2-0.5-0.1-0.7,0.1
		c-0.2,0.2-0.1,0.5,0.1,0.7c0,0,0.7,0.5,2.3,1c-0.1,0.2-0.2,0.5-0.2,0.8c0,0.8,0.6,1.4,1.4,1.4c0.8,0,1.4-0.6,1.4-1.4
		c0-0.1,0-0.2,0-0.3C8.8,14.7,9.4,14.7,10,14.7 M20.3,12.5c-0.2-0.2-0.5-0.3-0.7-0.1c0,0-1.6,1.2-6,1.3c-0.3,0-0.5,0.2-0.5,0.5
		c0,0.3,0.2,0.5,0.5,0.5c0,0,0,0,0,0c0.6,0,1.2-0.1,1.8-0.1c0,0.1,0,0.2,0,0.3c0,0.8,0.6,1.4,1.4,1.4c0.8,0,1.4-0.6,1.4-1.4
		c0-0.3-0.1-0.5-0.2-0.8c1.6-0.4,2.3-0.9,2.3-1C20.4,13.1,20.4,12.7,20.3,12.5"/>
</g>
</svg>
