<?xml version="1.0" encoding="utf-8"?>
<!-- Generator: Adobe Illustrator 19.0.0, SVG Export Plug-In . SVG Version: 6.00 Build 0)  -->
<svg version="1.1" id="Layer_1" xmlns="http://www.w3.org/2000/svg" xmlns:xlink="http://www.w3.org/1999/xlink" x="0px" y="0px"
	 viewBox="0 0 23.6 23.3" style="enable-background:new 0 0 23.6 23.3;" xml:space="preserve">
<style type="text/css">
	.st0{fill:#FDDB73;}
	.st1{fill:#262C38;}
	.st2{fill:#F25268;}
</style>
<g id="XMLID_4_">
	<path id="XMLID_91_" class="st0" d="M11.8,0.4c-6.2,0-11.2,5-11.2,11.2s5,11.2,11.2,11.2c6.2,0,11.2-5,11.2-11.2S18,0.4,11.8,0.4"
		/>
	<path id="XMLID_71_" class="st1" d="M4.8,11.6c0,3.9,3.2,7.1,7.1,7.1c3.9,0,7.1-3.2,7.1-7.1H4.8z M5.3,7.3l1.8,0.7L5.3,8.6
		C5.1,8.7,4.9,9,5,9.2c0.1,0.2,0.3,0.3,0.5,0.3c0.1,0,0.1,0,0.2,0l2.8-1c0,0,0,0,0.1,0C8.8,8.4,8.9,8.2,8.9,8S8.8,7.5,8.6,7.4
		c0,0,0,0-0.1,0L5.7,6.3C5.4,6.2,5.1,6.3,5,6.6C4.9,6.9,5.1,7.2,5.3,7.3 M15,8.5C15,8.5,15.1,8.5,15,8.5l2.9,1c0.1,0,0.1,0,0.2,0
		c0.2,0,0.4-0.1,0.5-0.3c0.1-0.3,0-0.6-0.3-0.7l-1.8-0.7l1.8-0.7c0.3-0.1,0.4-0.4,0.3-0.7c-0.1-0.3-0.4-0.4-0.7-0.3l-2.8,1.1
		c0,0,0,0-0.1,0c-0.2,0.1-0.3,0.3-0.3,0.6C14.7,8.2,14.8,8.4,15,8.5"/>
	<path id="XMLID_70_" class="st2" d="M11.8,14c-2.4,0-4.6,0.3-6.3,0.9c1.2,2.3,3.5,3.8,6.3,3.8c2.7,0,5.1-1.5,6.3-3.8
		C16.4,14.3,14.2,14,11.8,14"/>
	<path id="XMLID_69_" class="st0" d="M11.8,0.4c-6.2,0-11.2,5-11.2,11.2s5,11.2,11.2,11.2c6.2,0,11.2-5,11.2-11.2S18,0.4,11.8,0.4"
		/>
	<path id="XMLID_65_" class="st1" d="M4.8,11.6c0,3.9,3.2,7.1,7.1,7.1c3.9,0,7.1-3.2,7.1-7.1H4.8z M5.3,7.3l1.8,0.7L5.3,8.6
		C5.1,8.7,4.9,9,5,9.2c0.1,0.2,0.3,0.3,0.5,0.3c0.1,0,0.1,0,0.2,0l2.8-1c0,0,0,0,0.1,0C8.8,8.4,8.9,8.2,8.9,8S8.8,7.5,8.6,7.4
		c0,0,0,0-0.1,0L5.7,6.3C5.4,6.2,5.1,6.3,5,6.6C4.9,6.9,5.1,7.2,5.3,7.3 M15,8.5C15,8.5,15.1,8.5,15,8.5l2.9,1c0.1,0,0.1,0,0.2,0
		c0.2,0,0.4-0.1,0.5-0.3c0.1-0.3,0-0.6-0.3-0.7l-1.8-0.7l1.8-0.7c0.3-0.1,0.4-0.4,0.3-0.7c-0.1-0.3-0.4-0.4-0.7-0.3l-2.8,1.1
		c0,0,0,0-0.1,0c-0.2,0.1-0.3,0.3-0.3,0.6C14.7,8.2,14.8,8.4,15,8.5"/>
	<path id="XMLID_64_" class="st2" d="M11.8,14c-2.4,0-4.6,0.3-6.3,0.9c1.2,2.3,3.5,3.8,6.3,3.8c2.7,0,5.1-1.5,6.3-3.8
		C16.4,14.3,14.2,14,11.8,14"/>
</g>
</svg>
